<svg xmlns="http://www.w3.org/2000/svg" xml:space="preserve" width="1500" height="1500" data-id="lg_JZ0dX8c1QKusm0gPyt" data-version="1" viewBox="0 0 1500 1500"><path fill="#fff" stroke="transparent" d="M0 0h1500v1500H0z"/><g data-padding="20"><g transform="translate(-585.74 -595.645)scale(1.73989)"><rect width="247.386" height="236.17" x="246.394" y="257.923" fill="none" rx="0" ry="0" transform="translate(244.19 399.36)"/><path fill="#0e5ddd" d="M546.837 720.428h-39.3l-16.72-18.81h118.51l16.72 18.81h-50.37l.42 126.65-29.26-6.06Zm178.91 34.9-7.52 10.87q-3.14-1.05-7.32-2.61-4.18-1.57-6.48-2.3t-5.01-1.57q-2.72-.84-4.5-1.15-1.77-.31-3.24-.31-13.58.62-22.99 17.55-8.98 16.31-6.89 32.82 1.88 16.51 14.63 18.39 14.83 2.09 39.71-17.14l3.97 4.6q4.18 4.6 8.15 9.4l3.97 4.6q-8.15 6.06-14.32 9.82-6.16 3.77-12.64 6.17t-12.65 2.3q-6.16-.11-12.64-2.61-17.98-6.9-33.86-24.25-9.4-10.45-10.34-24.76-.95-14.32 5.01-26.65t17.66-21.01q11.71-8.67 25.5-8.67 6.48 0 41.8 16.51m69.5-106.72h119.6v26h-119.6Zm0 46.8h119.6v26h-119.6Zm0 46.8h119.6v26h-119.6Zm130 36.4h119.6v26h-119.6Zm0 46.8h119.6v26h-119.6Zm0 46.8h119.6v26h-119.6Zm-36.4-93.6h26v119.6h-26Zm-46.8 0h26v119.6h-26Zm-46.8 0h26v119.6h-26Zm223.6-130h26v119.6h-26Zm-46.8 0h26v119.6h-26Zm-46.8 0h26v119.6h-26Z"/></g><path fill="transparent" stroke="transparent" stroke-width="1.805" d="M250 524.368h1000v451.264H250z"/></g></svg>